<?xml version="1.0" standalone="no"?>
<!DOCTYPE svg PUBLIC "-//W3C//DTD SVG 20010904//EN"
 "http://www.w3.org/TR/2001/REC-SVG-20010904/DTD/svg10.dtd">
<svg version="1.0" xmlns="http://www.w3.org/2000/svg"
 width="589.000000pt" height="589.000000pt" viewBox="0 0 589.000000 589.000000"
 preserveAspectRatio="xMidYMid meet">
<metadata>
Created by potrace 1.11, written by Peter Selinger 2001-2013
</metadata>
<g transform="translate(0.000000,589.000000) scale(0.100000,-0.100000)"
fill="#000000" stroke="none">
<path d="M1174 4135 c3 -38 8 -79 10 -90 2 -11 5 -25 5 -31 1 -6 24 -15 53
-18 65 -9 155 -40 181 -63 30 -27 57 -95 64 -165 9 -81 9 -1553 0 -1634 -8
-79 -32 -138 -69 -169 -35 -30 -135 -60 -209 -64 -21 -1 -28 -26 -35 -126 l-6
-80 557 0 557 0 -5 86 c-4 47 -9 92 -12 101 -4 10 -31 19 -78 27 -140 23 -184
58 -214 172 -14 54 -16 121 -17 418 -1 347 -1 354 19 357 54 8 296 14 763 20
l514 7 -4 -384 c-5 -417 -9 -453 -64 -518 -28 -34 -111 -69 -181 -76 -26 -2
-50 -8 -55 -13 -8 -8 -23 -120 -23 -171 l0 -24 556 -1 556 -1 -4 63 c-2 35 -7
80 -11 100 -8 36 -8 36 -81 49 -113 21 -171 56 -195 119 -35 91 -36 140 -33
959 2 735 4 815 20 861 9 28 25 60 34 71 36 41 128 75 220 81 27 2 40 43 46
142 l4 65 -557 0 -556 0 2 -40 c1 -22 5 -67 9 -101 l6 -60 85 -16 c129 -24
183 -71 210 -183 4 -16 9 -182 11 -368 l4 -337 -648 2 -648 3 1 310 c0 171 4
334 8 364 10 71 38 133 72 160 34 27 135 57 205 60 23 1 29 22 36 121 l5 85
-557 0 -558 0 7 -70z"/>
<path d="M4696 3448 c-13 -29 -110 -244 -216 -478 -105 -234 -199 -440 -207
-457 -19 -42 -12 -59 31 -77 51 -21 77 -23 87 -6 34 58 457 1015 453 1022 -8
12 -90 48 -110 48 -8 0 -25 -24 -38 -52z"/>
<path d="M5127 3445 c-18 -13 -42 -36 -52 -51 -19 -30 -23 -25 50 -68 275
-163 581 -349 582 -354 2 -4 -34 -28 -80 -53 -45 -26 -187 -106 -315 -179
l-233 -132 4 -43 c3 -24 15 -58 27 -75 l22 -30 26 19 c15 10 50 32 77 49 28
16 122 73 210 126 88 53 217 126 286 164 137 72 149 86 149 164 0 40 17 27
-245 193 -222 140 -236 149 -319 203 -43 29 -82 52 -86 52 -4 0 -13 6 -19 14
-20 24 -49 24 -84 1z"/>
<path d="M690 3435 c-32 -20 -349 -209 -573 -339 -82 -48 -88 -54 -101 -98 -8
-25 -13 -55 -11 -65 2 -10 4 -23 4 -30 1 -6 52 -37 114 -69 61 -31 193 -102
292 -157 99 -56 190 -106 202 -111 13 -6 23 -14 23 -18 0 -5 4 -8 10 -8 5 0
39 -18 76 -41 62 -37 67 -39 79 -22 18 24 27 105 16 134 -6 16 -39 40 -102 73
-146 77 -387 202 -466 243 -40 21 -73 40 -73 43 0 3 28 21 62 40 33 19 73 42
87 50 14 8 53 30 86 49 33 19 80 46 105 61 25 15 110 64 190 110 80 46 146 85
148 86 7 5 -34 46 -63 63 -49 30 -67 31 -105 6z"/>
</g>
</svg>
